<?xml version="1.0" encoding="utf-8"?>
<!-- Generator: Adobe Illustrator 24.0.3, SVG Export Plug-In . SVG Version: 6.00 Build 0)  -->
<svg version="1.1" id="Layer_1" xmlns="http://www.w3.org/2000/svg" xmlns:xlink="http://www.w3.org/1999/xlink" x="0px" y="0px"
	 viewBox="0 0 763.89 289.98" style="enable-background:new 0 0 763.89 289.98;" xml:space="preserve">
<style type="text/css">
	.st0{fill:#3B6E8F;}
	.st1{fill:#C1D82F;}
</style>
<path class="st0" d="M327.68,42.44c-5.78,0-10.72-1.77-14.83-5.32c-4.11-3.55-6.16-8.57-6.16-15.06c0-5.88,2.1-10.72,6.31-14.53
	c4.21-3.8,9.1-5.7,14.68-5.7c5.37,0,10.14,1.73,14.3,5.17c4.16,3.45,6.24,8.47,6.24,15.06c0,6.39-2.03,11.38-6.08,14.98
	C338.07,40.64,333.25,42.44,327.68,42.44z"/>
<path class="st0" d="M250.27,66.69c2.06-2.48,4.93-4.03,8.6-4.64H153.49c4.64,0.68,7.99,2.54,10,5.63
	c2.59,3.95,5.45,10.6,8.59,19.92l33.61,94.3l36.2-98.41C244.74,75.59,247.53,69.99,250.27,66.69z M312.39,224.04
	c-3.8-4.36-5.7-10.59-5.7-18.71V86.54c0-8.21,1.9-14.4,5.7-18.56c2.99-3.27,6.7-5.23,11.1-5.93h-57.16
	c3.75,0.64,7.04,2.31,9.87,5.02c3.7,3.55,5.55,7.66,5.55,12.32c0,1.83-0.33,3.96-0.99,6.39c-0.66,2.43-1.42,4.71-2.28,6.84
	c-0.86,2.13-1.85,4.56-2.97,7.3l-39.85,98.86c-1.12,2.84-2.56,6.44-4.33,10.8c-1.78,4.36-3.75,8.09-5.93,11.18
	c-2.18,3.09-4.87,5.5-8.06,7.22c-0.74,0.4-1.52,0.74-2.33,1.04H319.2C316.63,227.95,314.35,226.29,312.39,224.04z"/>
<path class="st1" d="M39.24,23.73v63.42c7.81-8.11,15.77-14.32,23.88-18.63c8.11-4.31,18.15-6.46,30.11-6.46
	c13.79,0,25.88,3.27,36.28,9.81c10.39,6.54,18.45,16.02,24.18,28.44c5.73,12.42,8.59,27.15,8.59,44.18c0,12.57-1.6,24.11-4.79,34.6
	c-3.19,10.49-7.83,19.6-13.92,27.3c-6.08,7.71-13.46,13.67-22.13,17.87c-8.67,4.21-18.23,6.31-28.67,6.31
	c-6.39,0-12.4-0.76-18.02-2.28c-5.63-1.52-10.42-3.52-14.37-6.01c-3.95-2.48-7.33-5.04-10.11-7.68c-2.79-2.64-6.46-6.59-11.03-11.86
	v4.11c0,7.81-1.88,13.71-5.63,17.72c-3.75,4-8.52,6.01-14.3,6.01c-5.88,0-10.57-2-14.07-6.01c-3.5-4-5.25-9.91-5.25-17.72V25.55
	c0-8.42,1.7-14.78,5.1-19.09C8.49,2.16,13.23,0,19.32,0c6.39,0,11.31,2.05,14.75,6.16C37.52,10.27,39.24,16.12,39.24,23.73z
	 M41.22,147.08c0,16.53,3.78,29.23,11.33,38.1c7.55,8.87,17.47,13.31,29.73,13.31c10.44,0,19.44-4.54,27-13.61
	c7.55-9.07,11.33-22.08,11.33-39.01c0-10.95-1.57-20.38-4.71-28.29c-3.14-7.91-7.6-14.02-13.39-18.33
	c-5.78-4.31-12.52-6.46-20.23-6.46c-7.91,0-14.96,2.16-21.14,6.46c-6.19,4.31-11.05,10.55-14.6,18.71
	C42.99,126.11,41.22,135.82,41.22,147.08z"/>
<path class="st1" d="M241.54,289.98h-8.53c-1.23,0-2.11-0.28-2.64-0.83c-0.53-0.55-0.79-1.43-0.79-2.64v-20.99
	c0-1.23,0.27-2.12,0.81-2.66c0.54-0.54,1.41-0.81,2.62-0.81h9.05c1.33,0,2.49,0.08,3.47,0.25c0.98,0.17,1.85,0.48,2.63,0.95
	c0.66,0.39,1.24,0.89,1.75,1.5c0.51,0.6,0.9,1.27,1.16,2c0.27,0.73,0.4,1.5,0.4,2.31c0,2.79-1.4,4.84-4.19,6.13
	c3.67,1.17,5.5,3.44,5.5,6.82c0,1.56-0.4,2.97-1.2,4.22c-0.8,1.25-1.88,2.17-3.24,2.77c-0.85,0.36-1.83,0.61-2.93,0.75
	C244.3,289.91,243.01,289.98,241.54,289.98z M235.23,266.31v7.22h5.18c1.41,0,2.5-0.13,3.27-0.4c0.77-0.27,1.36-0.77,1.76-1.52
	c0.32-0.53,0.48-1.13,0.48-1.79c0-1.41-0.5-2.35-1.5-2.81c-1-0.46-2.53-0.7-4.59-0.7H235.23z M241.12,277.58h-5.88v8.15h6.08
	c3.82,0,5.73-1.38,5.73-4.13c0-1.41-0.5-2.43-1.49-3.07C244.57,277.9,243.09,277.58,241.12,277.58z"/>
<path class="st1" d="M265.27,278.04h-1.98v8.97c0,1.18-0.26,2.05-0.78,2.61c-0.52,0.56-1.2,0.84-2.04,0.84
	c-0.9,0-1.6-0.29-2.09-0.88c-0.5-0.58-0.74-1.44-0.74-2.57v-21.48c0-1.22,0.27-2.1,0.82-2.65c0.55-0.55,1.43-0.82,2.65-0.82h9.2
	c1.27,0,2.36,0.05,3.26,0.16c0.9,0.11,1.71,0.33,2.44,0.66c0.88,0.37,1.65,0.9,2.32,1.58c0.67,0.69,1.18,1.48,1.53,2.39
	c0.35,0.91,0.52,1.87,0.52,2.89c0,2.08-0.59,3.75-1.76,4.99c-1.17,1.24-2.96,2.13-5.34,2.65c1,0.53,1.96,1.32,2.88,2.36
	c0.91,1.04,1.73,2.15,2.45,3.32c0.72,1.17,1.28,2.23,1.68,3.18c0.4,0.95,0.6,1.6,0.6,1.95c0,0.37-0.12,0.73-0.35,1.09
	c-0.24,0.36-0.56,0.65-0.96,0.86c-0.41,0.21-0.88,0.31-1.41,0.31c-0.64,0-1.17-0.15-1.6-0.45c-0.43-0.3-0.8-0.68-1.11-1.13
	c-0.31-0.46-0.73-1.13-1.27-2.02l-2.27-3.77c-0.81-1.38-1.54-2.44-2.18-3.16c-0.64-0.72-1.29-1.22-1.95-1.49
	C267.1,278.17,266.27,278.04,265.27,278.04z M268.51,266.31h-5.22v7.68h5.07c1.36,0,2.5-0.12,3.43-0.35
	c0.93-0.24,1.63-0.63,2.12-1.2c0.49-0.56,0.73-1.34,0.73-2.33c0-0.77-0.2-1.46-0.59-2.05c-0.39-0.59-0.94-1.03-1.64-1.32
	C271.75,266.45,270.45,266.31,268.51,266.31z"/>
<path class="st1" d="M285.95,287.01v-22c0-1.14,0.26-2,0.78-2.57c0.52-0.57,1.19-0.86,2.02-0.86c0.85,0,1.54,0.28,2.07,0.85
	c0.53,0.56,0.79,1.42,0.79,2.58v22c0,1.16-0.26,2.02-0.79,2.59c-0.53,0.57-1.22,0.86-2.07,0.86c-0.81,0-1.48-0.29-2.01-0.87
	C286.21,289.01,285.95,288.15,285.95,287.01z"/>
<path class="st1" d="M319.14,281.6c0,1.69-0.44,3.21-1.3,4.55s-2.14,2.4-3.82,3.16c-1.68,0.76-3.66,1.14-5.96,1.14
	c-2.76,0-5.03-0.52-6.82-1.56c-1.27-0.75-2.3-1.75-3.09-3c-0.79-1.25-1.19-2.47-1.19-3.65c0-0.69,0.24-1.27,0.71-1.76
	c0.48-0.49,1.08-0.73,1.82-0.73c0.6,0,1.1,0.19,1.51,0.57c0.41,0.38,0.77,0.95,1.06,1.69c0.36,0.89,0.74,1.63,1.15,2.23
	c0.41,0.6,0.99,1.09,1.74,1.48c0.75,0.39,1.73,0.58,2.95,0.58c1.68,0,3.04-0.39,4.08-1.17c1.05-0.78,1.57-1.76,1.57-2.92
	c0-0.93-0.28-1.68-0.85-2.26c-0.56-0.58-1.29-1.02-2.19-1.32c-0.89-0.3-2.09-0.63-3.59-0.97c-2.01-0.47-3.69-1.02-5.04-1.65
	c-1.35-0.63-2.42-1.49-3.22-2.57c-0.79-1.09-1.19-2.43-1.19-4.05c0-1.54,0.42-2.9,1.26-4.09c0.84-1.19,2.05-2.11,3.64-2.75
	c1.59-0.64,3.45-0.96,5.6-0.96c1.71,0,3.2,0.21,4.45,0.64c1.25,0.43,2.29,0.99,3.11,1.7c0.83,0.7,1.43,1.44,1.81,2.22
	c0.38,0.77,0.57,1.53,0.57,2.27c0,0.67-0.24,1.28-0.71,1.82c-0.48,0.54-1.07,0.81-1.78,0.81c-0.65,0-1.14-0.16-1.48-0.49
	c-0.34-0.32-0.7-0.85-1.09-1.59c-0.51-1.05-1.12-1.88-1.83-2.47c-0.71-0.59-1.85-0.89-3.43-0.89c-1.46,0-2.64,0.32-3.53,0.96
	c-0.9,0.64-1.34,1.41-1.34,2.31c0,0.56,0.15,1.04,0.46,1.45c0.3,0.41,0.72,0.76,1.26,1.05s1.07,0.52,1.62,0.69
	c0.55,0.16,1.45,0.41,2.7,0.72c1.57,0.37,3,0.77,4.28,1.22c1.28,0.44,2.36,0.98,3.26,1.62c0.89,0.63,1.59,1.44,2.09,2.41
	C318.89,279,319.14,280.19,319.14,281.6z"/>
<path class="st1" d="M342.07,266.73h-6.17v20.28c0,1.17-0.26,2.03-0.78,2.6c-0.52,0.56-1.19,0.85-2.02,0.85
	c-0.84,0-1.52-0.29-2.05-0.86c-0.53-0.57-0.79-1.43-0.79-2.59v-20.28h-6.17c-0.96,0-1.68-0.21-2.15-0.64
	c-0.47-0.42-0.7-0.99-0.7-1.69c0-0.72,0.24-1.29,0.73-1.71c0.49-0.42,1.2-0.63,2.12-0.63h17.98c0.98,0,1.7,0.22,2.18,0.65
	c0.48,0.43,0.71,1,0.71,1.69s-0.24,1.26-0.72,1.69C343.76,266.51,343.04,266.73,342.07,266.73z"/>
<path class="st1" d="M360.09,261.58c2.89,0,5.38,0.59,7.46,1.76c2.08,1.17,3.65,2.84,4.71,5.01c1.07,2.17,1.6,4.71,1.6,7.63
	c0,2.16-0.29,4.12-0.88,5.88c-0.58,1.76-1.46,3.29-2.63,4.59c-1.17,1.29-2.6,2.29-4.3,2.97c-1.7,0.69-3.65,1.03-5.85,1.03
	c-2.18,0-4.14-0.35-5.87-1.06c-1.73-0.7-3.17-1.7-4.32-2.98c-1.16-1.28-2.03-2.83-2.62-4.63s-0.89-3.75-0.89-5.85
	c0-2.15,0.31-4.11,0.92-5.9c0.62-1.79,1.51-3.31,2.68-4.57c1.17-1.26,2.59-2.22,4.27-2.88
	C356.05,261.92,357.96,261.58,360.09,261.58z M368.13,275.94c0-2.04-0.33-3.82-0.99-5.31c-0.66-1.5-1.6-2.63-2.83-3.4
	c-1.23-0.77-2.63-1.15-4.22-1.15c-1.13,0-2.17,0.21-3.13,0.64c-0.96,0.42-1.78,1.04-2.48,1.86s-1.24,1.85-1.64,3.11
	c-0.4,1.26-0.6,2.68-0.6,4.26c0,1.59,0.2,3.02,0.6,4.3s0.96,2.35,1.7,3.19c0.73,0.84,1.57,1.48,2.51,1.9
	c0.95,0.42,1.98,0.63,3.11,0.63c1.45,0,2.78-0.36,3.99-1.08c1.21-0.72,2.18-1.84,2.89-3.35
	C367.77,280.01,368.13,278.15,368.13,275.94z"/>
<path class="st1" d="M384.24,265.01v20.32h11.46c0.91,0,1.62,0.22,2.1,0.67c0.49,0.44,0.73,1,0.73,1.68c0,0.69-0.24,1.24-0.72,1.67
	c-0.48,0.42-1.19,0.64-2.11,0.64h-13.66c-1.23,0-2.12-0.27-2.66-0.82c-0.54-0.55-0.81-1.43-0.81-2.65v-21.5c0-1.14,0.26-2,0.77-2.57
	c0.51-0.57,1.19-0.86,2.03-0.86c0.85,0,1.54,0.28,2.07,0.85C383.98,263,384.24,263.86,384.24,265.01z"/>
<path class="st0" d="M416.14,265.3l6.32,18.72l6.34-18.85c0.33-0.99,0.58-1.68,0.74-2.07c0.17-0.39,0.44-0.74,0.82-1.05
	c0.38-0.31,0.9-0.47,1.56-0.47c0.48,0,0.93,0.12,1.34,0.36c0.41,0.24,0.74,0.56,0.97,0.96c0.23,0.4,0.35,0.8,0.35,1.21
	c0,0.28-0.04,0.58-0.11,0.9c-0.08,0.32-0.17,0.64-0.29,0.95c-0.11,0.31-0.23,0.63-0.34,0.96l-6.76,18.25
	c-0.24,0.7-0.48,1.36-0.72,1.99c-0.24,0.63-0.52,1.18-0.84,1.66c-0.32,0.48-0.74,0.87-1.27,1.17c-0.53,0.3-1.17,0.46-1.93,0.46
	c-0.76,0-1.41-0.15-1.93-0.45c-0.53-0.3-0.95-0.69-1.28-1.18c-0.32-0.49-0.61-1.04-0.85-1.67c-0.24-0.62-0.48-1.28-0.72-1.98
	l-6.65-18.09c-0.11-0.33-0.23-0.65-0.35-0.97c-0.12-0.32-0.22-0.66-0.3-1.03c-0.08-0.37-0.12-0.68-0.12-0.93
	c0-0.65,0.26-1.24,0.78-1.77c0.52-0.53,1.17-0.8,1.96-0.8c0.96,0,1.65,0.29,2.05,0.89C415.31,263.06,415.72,264,416.14,265.3z"/>
<path class="st0" d="M439.07,287.01v-22c0-1.14,0.26-2,0.78-2.57c0.52-0.57,1.19-0.86,2.02-0.86c0.85,0,1.54,0.28,2.07,0.85
	c0.53,0.56,0.79,1.42,0.79,2.58v22c0,1.16-0.26,2.02-0.79,2.59c-0.53,0.57-1.22,0.86-2.07,0.86c-0.81,0-1.48-0.29-2.01-0.87
	C439.33,289.01,439.07,288.15,439.07,287.01z"/>
<path class="st0" d="M472.26,281.6c0,1.69-0.44,3.21-1.3,4.55c-0.87,1.35-2.14,2.4-3.82,3.16c-1.68,0.76-3.66,1.14-5.96,1.14
	c-2.76,0-5.03-0.52-6.82-1.56c-1.27-0.75-2.3-1.75-3.09-3c-0.79-1.25-1.19-2.47-1.19-3.65c0-0.69,0.24-1.27,0.71-1.76
	c0.48-0.49,1.08-0.73,1.82-0.73c0.6,0,1.1,0.19,1.51,0.57c0.41,0.38,0.77,0.95,1.06,1.69c0.36,0.89,0.74,1.63,1.15,2.23
	c0.41,0.6,0.99,1.09,1.74,1.48c0.75,0.39,1.73,0.58,2.95,0.58c1.68,0,3.04-0.39,4.08-1.17c1.05-0.78,1.57-1.76,1.57-2.92
	c0-0.93-0.28-1.68-0.85-2.26c-0.57-0.58-1.29-1.02-2.19-1.32c-0.89-0.3-2.09-0.63-3.59-0.97c-2.01-0.47-3.68-1.02-5.04-1.65
	c-1.35-0.63-2.42-1.49-3.22-2.57c-0.79-1.09-1.19-2.43-1.19-4.05c0-1.54,0.42-2.9,1.26-4.09c0.84-1.19,2.05-2.11,3.64-2.75
	c1.59-0.64,3.45-0.96,5.6-0.96c1.71,0,3.2,0.21,4.45,0.64c1.25,0.43,2.29,0.99,3.11,1.7c0.83,0.7,1.43,1.44,1.81,2.22
	c0.38,0.77,0.57,1.53,0.57,2.27c0,0.67-0.24,1.28-0.71,1.82c-0.48,0.54-1.07,0.81-1.78,0.81c-0.65,0-1.14-0.16-1.48-0.49
	c-0.34-0.32-0.7-0.85-1.09-1.59c-0.51-1.05-1.12-1.88-1.83-2.47c-0.71-0.59-1.85-0.89-3.43-0.89c-1.46,0-2.64,0.32-3.53,0.96
	c-0.89,0.64-1.34,1.41-1.34,2.31c0,0.56,0.15,1.04,0.46,1.45c0.3,0.41,0.72,0.76,1.26,1.05s1.07,0.52,1.62,0.69
	c0.55,0.16,1.45,0.41,2.7,0.72c1.57,0.37,3,0.77,4.28,1.22c1.28,0.44,2.36,0.98,3.26,1.62c0.9,0.63,1.59,1.44,2.09,2.41
	C472.01,279,472.26,280.19,472.26,281.6z"/>
<path class="st0" d="M477.29,287.01v-22c0-1.14,0.26-2,0.78-2.57c0.52-0.57,1.19-0.86,2.02-0.86c0.85,0,1.54,0.28,2.07,0.85
	c0.53,0.56,0.79,1.42,0.79,2.58v22c0,1.16-0.26,2.02-0.79,2.59c-0.53,0.57-1.22,0.86-2.07,0.86c-0.81,0-1.48-0.29-2.01-0.87
	C477.55,289.01,477.29,288.15,477.29,287.01z"/>
<path class="st0" d="M501.55,261.58c2.9,0,5.38,0.59,7.46,1.76c2.08,1.17,3.65,2.84,4.71,5.01c1.07,2.17,1.6,4.71,1.6,7.63
	c0,2.16-0.29,4.12-0.88,5.88c-0.58,1.76-1.46,3.29-2.63,4.59c-1.17,1.29-2.6,2.29-4.3,2.97c-1.7,0.69-3.65,1.03-5.85,1.03
	c-2.18,0-4.14-0.35-5.87-1.06c-1.73-0.7-3.17-1.7-4.32-2.98c-1.16-1.28-2.03-2.83-2.62-4.63c-0.59-1.8-0.88-3.75-0.88-5.85
	c0-2.15,0.31-4.11,0.92-5.9c0.62-1.79,1.51-3.31,2.68-4.57s2.59-2.22,4.27-2.88C497.52,261.92,499.42,261.58,501.55,261.58z
	 M509.59,275.94c0-2.04-0.33-3.82-0.99-5.31c-0.66-1.5-1.6-2.63-2.83-3.4c-1.23-0.77-2.63-1.15-4.22-1.15
	c-1.13,0-2.17,0.21-3.13,0.64c-0.96,0.42-1.78,1.04-2.48,1.86c-0.69,0.81-1.24,1.85-1.64,3.11c-0.4,1.26-0.6,2.68-0.6,4.26
	c0,1.59,0.2,3.02,0.6,4.3c0.4,1.28,0.96,2.35,1.69,3.19c0.73,0.84,1.57,1.48,2.51,1.9c0.95,0.42,1.98,0.63,3.11,0.63
	c1.45,0,2.78-0.36,3.99-1.08c1.21-0.72,2.18-1.84,2.89-3.35C509.23,280.01,509.59,278.15,509.59,275.94z"/>
<path class="st0" d="M527.53,264.97l10.87,16.46v-16.61c0-1.08,0.23-1.89,0.7-2.43c0.46-0.54,1.09-0.81,1.88-0.81
	c0.81,0,1.45,0.27,1.92,0.81c0.47,0.54,0.71,1.35,0.71,2.43v21.96c0,2.45-1.02,3.68-3.05,3.68c-0.51,0-0.96-0.07-1.37-0.22
	c-0.41-0.15-0.79-0.38-1.14-0.7c-0.36-0.32-0.69-0.69-0.99-1.11c-0.3-0.43-0.61-0.86-0.91-1.3l-10.61-16.26v16.36
	c0,1.07-0.25,1.87-0.74,2.42c-0.5,0.55-1.13,0.82-1.9,0.82c-0.8,0-1.44-0.28-1.92-0.83c-0.48-0.55-0.72-1.36-0.72-2.41v-21.54
	c0-0.91,0.1-1.63,0.3-2.15c0.24-0.57,0.64-1.04,1.2-1.4c0.56-0.36,1.16-0.54,1.81-0.54c0.51,0,0.94,0.08,1.3,0.25
	c0.36,0.17,0.68,0.39,0.95,0.67c0.27,0.28,0.55,0.64,0.84,1.09C526.93,264.03,527.23,264.49,527.53,264.97z"/>
<path class="st0" d="M559.77,287.01v-22c0-1.14,0.26-2,0.78-2.57c0.52-0.57,1.19-0.86,2.02-0.86c0.85,0,1.54,0.28,2.07,0.85
	c0.53,0.56,0.79,1.42,0.79,2.58v22c0,1.16-0.26,2.02-0.79,2.59c-0.53,0.57-1.22,0.86-2.07,0.86c-0.81,0-1.48-0.29-2.01-0.87
	C560.04,289.01,559.77,288.15,559.77,287.01z"/>
<path class="st0" d="M579.12,264.97L590,281.43v-16.61c0-1.08,0.23-1.89,0.7-2.43c0.46-0.54,1.09-0.81,1.88-0.81
	c0.81,0,1.45,0.27,1.92,0.81c0.47,0.54,0.7,1.35,0.7,2.43v21.96c0,2.45-1.02,3.68-3.05,3.68c-0.51,0-0.96-0.07-1.37-0.22
	c-0.41-0.15-0.79-0.38-1.14-0.7c-0.36-0.32-0.69-0.69-0.99-1.11c-0.3-0.43-0.61-0.86-0.91-1.3l-10.61-16.26v16.36
	c0,1.07-0.25,1.87-0.74,2.42c-0.5,0.55-1.13,0.82-1.9,0.82c-0.8,0-1.44-0.28-1.92-0.83c-0.48-0.55-0.72-1.36-0.72-2.41v-21.54
	c0-0.91,0.1-1.63,0.3-2.15c0.24-0.57,0.64-1.04,1.2-1.4c0.56-0.36,1.16-0.54,1.81-0.54c0.51,0,0.94,0.08,1.3,0.25
	c0.36,0.17,0.68,0.39,0.95,0.67c0.27,0.28,0.55,0.64,0.84,1.09C578.52,264.03,578.82,264.49,579.12,264.97z"/>
<path class="st0" d="M622.6,281.6c0,1.69-0.43,3.21-1.3,4.55c-0.87,1.35-2.14,2.4-3.82,3.16c-1.68,0.76-3.66,1.14-5.96,1.14
	c-2.75,0-5.03-0.52-6.82-1.56c-1.27-0.75-2.3-1.75-3.09-3c-0.79-1.25-1.19-2.47-1.19-3.65c0-0.69,0.24-1.27,0.71-1.76
	c0.48-0.49,1.08-0.73,1.82-0.73c0.6,0,1.1,0.19,1.51,0.57c0.41,0.38,0.76,0.95,1.06,1.69c0.36,0.89,0.74,1.63,1.15,2.23
	c0.41,0.6,0.99,1.09,1.74,1.48c0.75,0.39,1.73,0.58,2.95,0.58c1.68,0,3.04-0.39,4.09-1.17c1.05-0.78,1.57-1.76,1.57-2.92
	c0-0.93-0.28-1.68-0.85-2.26c-0.56-0.58-1.29-1.02-2.19-1.32c-0.9-0.3-2.09-0.63-3.59-0.97c-2.01-0.47-3.68-1.02-5.04-1.65
	c-1.35-0.63-2.42-1.49-3.22-2.57c-0.79-1.09-1.19-2.43-1.19-4.05c0-1.54,0.42-2.9,1.26-4.09c0.84-1.19,2.05-2.11,3.64-2.75
	c1.59-0.64,3.45-0.96,5.6-0.96c1.71,0,3.2,0.21,4.45,0.64c1.25,0.43,2.29,0.99,3.11,1.7c0.83,0.7,1.43,1.44,1.81,2.22
	c0.38,0.77,0.57,1.53,0.57,2.27c0,0.67-0.24,1.28-0.71,1.82c-0.48,0.54-1.07,0.81-1.78,0.81c-0.65,0-1.14-0.16-1.48-0.49
	c-0.34-0.32-0.7-0.85-1.1-1.59c-0.51-1.05-1.12-1.88-1.83-2.47c-0.71-0.59-1.85-0.89-3.43-0.89c-1.46,0-2.64,0.32-3.53,0.96
	c-0.89,0.64-1.34,1.41-1.34,2.31c0,0.56,0.15,1.04,0.46,1.45c0.3,0.41,0.72,0.76,1.26,1.05c0.53,0.29,1.07,0.52,1.62,0.69
	c0.55,0.16,1.45,0.41,2.71,0.72c1.57,0.37,3,0.77,4.28,1.22c1.28,0.44,2.36,0.98,3.26,1.62c0.9,0.63,1.59,1.44,2.1,2.41
	C622.35,279,622.6,280.19,622.6,281.6z"/>
<path class="st0" d="M645.53,266.73h-6.17v20.28c0,1.17-0.26,2.03-0.78,2.6c-0.52,0.56-1.19,0.85-2.02,0.85
	c-0.84,0-1.52-0.29-2.05-0.86c-0.53-0.57-0.79-1.43-0.79-2.59v-20.28h-6.17c-0.96,0-1.68-0.21-2.15-0.64
	c-0.47-0.42-0.7-0.99-0.7-1.69c0-0.72,0.24-1.29,0.73-1.71c0.49-0.42,1.2-0.63,2.12-0.63h17.98c0.98,0,1.7,0.22,2.18,0.65
	c0.48,0.43,0.71,1,0.71,1.69s-0.24,1.26-0.72,1.69C647.22,266.51,646.5,266.73,645.53,266.73z"/>
<path class="st0" d="M652.01,287.01v-22c0-1.14,0.26-2,0.78-2.57c0.52-0.57,1.19-0.86,2.02-0.86c0.85,0,1.54,0.28,2.07,0.85
	c0.53,0.56,0.79,1.42,0.79,2.58v22c0,1.16-0.26,2.02-0.79,2.59c-0.53,0.57-1.22,0.86-2.07,0.86c-0.81,0-1.48-0.29-2.01-0.87
	C652.27,289.01,652.01,288.15,652.01,287.01z"/>
<path class="st0" d="M682.12,266.73h-6.17v20.28c0,1.17-0.26,2.03-0.78,2.6c-0.52,0.56-1.19,0.85-2.02,0.85
	c-0.84,0-1.52-0.29-2.05-0.86c-0.53-0.57-0.79-1.43-0.79-2.59v-20.28h-6.17c-0.96,0-1.68-0.21-2.15-0.64
	c-0.47-0.42-0.71-0.99-0.71-1.69c0-0.72,0.24-1.29,0.73-1.71c0.49-0.42,1.2-0.63,2.12-0.63h17.98c0.98,0,1.7,0.22,2.18,0.65
	c0.48,0.43,0.71,1,0.71,1.69s-0.24,1.26-0.72,1.69C683.8,266.51,683.08,266.73,682.12,266.73z"/>
<path class="st0" d="M688.4,278.44v-13.43c0-1.14,0.26-2,0.77-2.57c0.51-0.57,1.19-0.86,2.03-0.86c0.88,0,1.57,0.29,2.08,0.86
	c0.51,0.57,0.77,1.43,0.77,2.57v13.73c0,1.56,0.17,2.87,0.52,3.91c0.35,1.05,0.97,1.86,1.86,2.44c0.89,0.58,2.13,0.87,3.73,0.87
	c2.21,0,3.77-0.59,4.69-1.76c0.91-1.17,1.37-2.96,1.37-5.34v-13.85c0-1.16,0.25-2.02,0.76-2.58c0.51-0.57,1.19-0.85,2.04-0.85
	c0.85,0,1.54,0.28,2.07,0.85c0.53,0.56,0.79,1.42,0.79,2.58v13.43c0,2.18-0.21,4.01-0.64,5.47c-0.43,1.46-1.23,2.74-2.41,3.85
	c-1.02,0.94-2.2,1.62-3.54,2.06c-1.35,0.43-2.92,0.65-4.72,0.65c-2.15,0-3.99-0.23-5.54-0.7c-1.55-0.46-2.81-1.18-3.79-2.15
	c-0.98-0.97-1.7-2.22-2.15-3.73C688.63,282.36,688.4,280.55,688.4,278.44z"/>
<path class="st0" d="M736.13,266.73h-6.17v20.28c0,1.17-0.26,2.03-0.78,2.6c-0.52,0.56-1.19,0.85-2.02,0.85
	c-0.84,0-1.52-0.29-2.05-0.86c-0.53-0.57-0.79-1.43-0.79-2.59v-20.28h-6.17c-0.96,0-1.68-0.21-2.15-0.64
	c-0.47-0.42-0.7-0.99-0.7-1.69c0-0.72,0.24-1.29,0.73-1.71c0.49-0.42,1.2-0.63,2.12-0.63h17.98c0.98,0,1.7,0.22,2.18,0.65
	c0.48,0.43,0.71,1,0.71,1.69s-0.24,1.26-0.72,1.69C737.81,266.51,737.09,266.73,736.13,266.73z"/>
<path class="st0" d="M760.77,266.42h-12.74v6.86h11.73c0.86,0,1.51,0.19,1.93,0.58c0.42,0.39,0.64,0.9,0.64,1.53
	c0,0.63-0.21,1.15-0.63,1.55c-0.42,0.4-1.07,0.6-1.94,0.6h-11.73v7.94h13.18c0.89,0,1.56,0.21,2.01,0.62
	c0.45,0.41,0.68,0.96,0.68,1.65c0,0.66-0.23,1.2-0.68,1.61c-0.45,0.41-1.12,0.62-2.01,0.62h-15.37c-1.23,0-2.12-0.27-2.66-0.82
	c-0.54-0.55-0.81-1.43-0.81-2.65v-20.99c0-0.81,0.12-1.48,0.36-1.99c0.24-0.51,0.62-0.89,1.13-1.12c0.51-0.23,1.17-0.35,1.97-0.35
	h14.93c0.9,0,1.57,0.2,2.01,0.6c0.44,0.4,0.66,0.92,0.66,1.57c0,0.66-0.22,1.19-0.66,1.59
	C762.34,266.22,761.67,266.42,760.77,266.42z"/>
</svg>
