<?xml version="1.0" encoding="utf-8"?>
<!-- Generator: Adobe Illustrator 24.0.3, SVG Export Plug-In . SVG Version: 6.00 Build 0)  -->
<svg version="1.1" id="Layer_1" xmlns="http://www.w3.org/2000/svg" xmlns:xlink="http://www.w3.org/1999/xlink" x="0px" y="0px"
	 viewBox="0 0 122.6 37" style="enable-background:new 0 0 122.6 37;" xml:space="preserve">
<style type="text/css">
	.st0{enable-background:new    ;}
	.st1{fill:#003D4C;}
	.st2{fill:#08837E;}
</style>
<g id="Layer_1_1_">
	<g class="st0">
		<path d="M5.6,28.5h0.8l-2.6,6.5H2.9l-2.4-6.5h0.9l2,5.4L5.6,28.5z"/>
		<path d="M7.1,29.2v-0.8h0.8v0.8H7.1z M7.1,30.3h0.8v4.7H7.1V30.3z"/>
		<path d="M8.8,33.7h0.8v0c0,0.2,0.1,0.4,0.2,0.5c0.1,0.1,0.4,0.2,0.8,0.2c0.3,0,0.6-0.1,0.8-0.2s0.3-0.3,0.3-0.6
			c0-0.3-0.2-0.5-0.6-0.6l-0.4-0.1l-0.3-0.1l-0.5-0.2c-0.6-0.2-0.9-0.6-0.9-1.1c0-0.4,0.1-0.7,0.4-1c0.3-0.3,0.7-0.4,1.3-0.4
			c0.6,0,1,0.1,1.2,0.4c0.2,0.2,0.4,0.5,0.4,0.8v0h-0.8v0c0-0.2-0.1-0.3-0.2-0.4c-0.2-0.1-0.4-0.1-0.6-0.1c-0.3,0-0.5,0.1-0.7,0.2
			c-0.2,0.1-0.2,0.3-0.2,0.5c0,0.1,0.1,0.3,0.2,0.4c0.1,0.1,0.3,0.2,0.5,0.2l0.4,0.1l0.3,0.1c0.4,0.1,0.6,0.2,0.7,0.2
			c0.1,0,0.2,0.1,0.3,0.2c0.1,0.1,0.2,0.2,0.3,0.4c0.1,0.1,0.1,0.3,0.1,0.5c0,0.4-0.2,0.8-0.5,1.1c-0.3,0.3-0.8,0.5-1.4,0.5
			c-0.4,0-0.7-0.1-0.9-0.2c-0.2-0.1-0.4-0.3-0.6-0.5S8.8,34,8.8,33.7L8.8,33.7z"/>
		<path d="M16.4,30.3h0.8v4.7h-0.8v-0.8c-0.2,0.3-0.3,0.4-0.5,0.6c-0.2,0.1-0.3,0.2-0.5,0.3c-0.2,0.1-0.3,0.1-0.5,0.1
			c-0.4,0-0.8-0.1-1.1-0.4s-0.5-0.7-0.5-1.5v-3h0.8v2.6c0,0.7,0.1,1.1,0.3,1.2c0.2,0.1,0.4,0.2,0.7,0.2c0.2,0,0.5-0.1,0.7-0.2
			c0.2-0.1,0.4-0.3,0.5-0.6s0.2-0.6,0.2-1V30.3z"/>
		<path d="M21.1,34.9C21,34.7,21,34.5,21,34.3c-0.3,0.3-0.6,0.6-0.8,0.6c-0.2,0.1-0.5,0.1-0.7,0.1c-0.4,0-0.7-0.1-0.9-0.3
			c-0.3-0.2-0.4-0.5-0.4-0.9c0-0.5,0.2-0.8,0.5-1c0.4-0.2,1-0.5,1.9-0.6L21,32v-0.5c0-0.3-0.1-0.5-0.3-0.6c-0.2-0.1-0.4-0.2-0.7-0.2
			c-0.3,0-0.5,0.1-0.7,0.2c-0.2,0.1-0.3,0.3-0.3,0.5v0.1h-0.8v-0.1c0-0.2,0.1-0.4,0.3-0.6c0.2-0.2,0.4-0.4,0.7-0.5
			c0.3-0.1,0.6-0.2,0.9-0.2c0.3,0,0.6,0.1,0.9,0.2c0.3,0.1,0.5,0.2,0.6,0.4s0.2,0.5,0.2,1v1.8c0,0.2,0,0.4,0,0.6
			c0,0.2,0.1,0.5,0.1,0.8H21.1z M21,32.6l-0.2,0.1c-0.8,0.2-1.2,0.4-1.4,0.5c-0.2,0.2-0.3,0.4-0.3,0.6c0,0.1,0,0.2,0.1,0.3
			c0.1,0.1,0.2,0.2,0.3,0.2s0.2,0.1,0.4,0.1c0.2,0,0.4-0.1,0.6-0.2c0.2-0.1,0.4-0.3,0.5-0.5s0.2-0.5,0.2-0.7V32.6z"/>
		<path d="M23.7,34.9H23v-6.8h0.8V34.9z"/>
	</g>
	<g class="st0">
		<path d="M30,34.9h-0.8v-6.5H30V34.9z"/>
		<path d="M32,34.9h-0.8v-4.7H32v0.8c0.2-0.3,0.3-0.4,0.5-0.6c0.2-0.1,0.3-0.2,0.5-0.3s0.4-0.1,0.6-0.1c0.3,0,0.5,0.1,0.8,0.2
			c0.2,0.1,0.4,0.3,0.5,0.5C35,31.1,35,31.5,35,32v3h-0.8v-2.6c0-0.4,0-0.7-0.1-0.9c-0.1-0.2-0.2-0.3-0.3-0.4
			c-0.2-0.1-0.3-0.1-0.5-0.1c-0.2,0-0.4,0.1-0.6,0.2s-0.4,0.3-0.5,0.6s-0.2,0.6-0.2,1V34.9z"/>
		<path d="M37.4,34.9h-0.8v-4h-0.7v-0.6h0.7v-0.2c0-0.7,0.1-1.2,0.4-1.4c0.3-0.3,0.7-0.4,1.1-0.4c0.2,0,0.4,0,0.6,0.1v0.6
			c-0.2,0-0.4,0-0.5,0c-0.2,0-0.5,0.1-0.6,0.2s-0.3,0.4-0.3,0.9v0.4h1.3v0.6h-1.3V34.9z"/>
		<path d="M41.4,35.1c-0.6,0-1.1-0.2-1.5-0.6c-0.4-0.4-0.6-1-0.6-1.8c0-0.8,0.2-1.4,0.6-1.8s0.9-0.6,1.5-0.6c0.6,0,1.1,0.2,1.5,0.6
			c0.4,0.4,0.6,1,0.6,1.8c0,0.8-0.2,1.4-0.6,1.8C42.6,34.9,42,35.1,41.4,35.1z M41.4,34.4c0.4,0,0.7-0.2,1-0.5
			c0.3-0.3,0.4-0.8,0.4-1.3c0-0.5-0.1-1-0.4-1.3c-0.3-0.3-0.6-0.5-1-0.5c-0.4,0-0.7,0.2-1,0.5c-0.3,0.3-0.4,0.8-0.4,1.3
			c0,0.5,0.1,1,0.4,1.3C40.7,34.3,41,34.4,41.4,34.4z"/>
		<path d="M45.4,34.9h-0.8v-4.7h0.8v0.8c0.1-0.2,0.3-0.4,0.4-0.6c0.2-0.1,0.3-0.2,0.5-0.3c0.2-0.1,0.4-0.1,0.5-0.1
			c0.2,0,0.3,0,0.4,0.1V31c-0.2-0.1-0.4-0.1-0.6-0.1c-0.3,0-0.6,0.1-0.9,0.4s-0.4,0.7-0.4,1.4V34.9z"/>
		<path d="M48.6,34.9h-0.8v-4.7h0.8v0.8c0.2-0.3,0.3-0.5,0.4-0.6c0.1-0.1,0.3-0.2,0.5-0.3s0.3-0.1,0.5-0.1c0.2,0,0.4,0,0.5,0.1
			c0.2,0.1,0.3,0.1,0.4,0.3c0.1,0.1,0.3,0.3,0.4,0.6c0.2-0.3,0.3-0.5,0.5-0.6s0.3-0.2,0.5-0.3s0.3-0.1,0.5-0.1
			c0.3,0,0.5,0.1,0.7,0.2s0.4,0.3,0.5,0.5s0.2,0.6,0.2,1.2v2.9h-0.8v-2.6c0-0.5,0-0.9-0.1-1c-0.1-0.1-0.2-0.3-0.3-0.3
			c-0.1-0.1-0.3-0.1-0.4-0.1c-0.2,0-0.4,0.1-0.6,0.2c-0.2,0.1-0.3,0.3-0.5,0.6c-0.1,0.2-0.2,0.6-0.2,1v2.3h-0.8v-2.6
			c0-0.5,0-0.9-0.1-1c-0.1-0.1-0.2-0.3-0.3-0.3s-0.3-0.1-0.4-0.1c-0.2,0-0.4,0.1-0.6,0.2c-0.2,0.1-0.4,0.3-0.5,0.6
			c-0.1,0.2-0.2,0.6-0.2,1V34.9z"/>
		<path d="M58.2,34.9c-0.1-0.3-0.1-0.5-0.1-0.6c-0.3,0.3-0.6,0.6-0.8,0.6c-0.2,0.1-0.5,0.1-0.7,0.1c-0.4,0-0.7-0.1-0.9-0.3
			c-0.3-0.2-0.4-0.5-0.4-0.9c0-0.5,0.2-0.8,0.5-1c0.4-0.2,1-0.5,1.9-0.6l0.4-0.1v-0.5c0-0.3-0.1-0.5-0.3-0.6
			c-0.2-0.1-0.4-0.2-0.7-0.2c-0.3,0-0.5,0.1-0.7,0.2c-0.2,0.1-0.3,0.3-0.3,0.5v0.1h-0.8v-0.1c0-0.2,0.1-0.4,0.3-0.6
			c0.2-0.2,0.4-0.4,0.7-0.5c0.3-0.1,0.6-0.2,0.9-0.2c0.3,0,0.6,0.1,0.9,0.2c0.3,0.1,0.5,0.2,0.6,0.4s0.2,0.5,0.2,1v1.8
			c0,0.2,0,0.4,0,0.6c0,0.2,0.1,0.5,0.1,0.8H58.2z M58.1,32.6l-0.2,0.1c-0.8,0.2-1.2,0.4-1.4,0.5c-0.2,0.2-0.3,0.4-0.3,0.6
			c0,0.1,0,0.2,0.1,0.3c0.1,0.1,0.2,0.2,0.3,0.2s0.2,0.1,0.4,0.1c0.2,0,0.4-0.1,0.6-0.2c0.2-0.1,0.4-0.3,0.5-0.5s0.2-0.5,0.2-0.7
			V32.6z"/>
		<path d="M62.9,34.3v0.7c-0.4,0.1-0.7,0.1-0.9,0.1c-0.3,0-0.5-0.1-0.8-0.2c-0.2-0.1-0.4-0.3-0.5-0.5c-0.1-0.2-0.2-0.6-0.2-1.1v-2.4
			h-0.8v-0.6h0.8v-1.1h0.8v1.1h1.3v0.6h-1.3v2.2c0,0.4,0,0.7,0.1,0.9c0.1,0.2,0.2,0.3,0.3,0.4s0.3,0.1,0.5,0.1
			C62.4,34.4,62.6,34.4,62.9,34.3z"/>
		<path d="M63.9,29.2v-0.8h0.8v0.8H63.9z M63.9,30.3h0.8v4.7h-0.8V30.3z"/>
		<path d="M67.8,35.1c-0.6,0-1.1-0.2-1.5-0.6c-0.4-0.4-0.6-1-0.6-1.8c0-0.8,0.2-1.4,0.6-1.8c0.4-0.4,0.9-0.6,1.5-0.6
			s1.1,0.2,1.5,0.6s0.6,1,0.6,1.8c0,0.8-0.2,1.4-0.6,1.8C68.9,34.9,68.4,35.1,67.8,35.1z M67.8,34.4c0.4,0,0.7-0.2,1-0.5
			c0.3-0.3,0.4-0.8,0.4-1.3c0-0.5-0.1-1-0.4-1.3c-0.3-0.3-0.6-0.5-1-0.5s-0.7,0.2-1,0.5c-0.3,0.3-0.4,0.8-0.4,1.3
			c0,0.5,0.1,1,0.4,1.3C67.1,34.3,67.4,34.4,67.8,34.4z"/>
		<path d="M71.7,34.9H71v-4.7h0.8v0.8c0.2-0.3,0.3-0.4,0.5-0.6c0.2-0.1,0.3-0.2,0.5-0.3c0.2-0.1,0.4-0.1,0.6-0.1
			c0.3,0,0.5,0.1,0.8,0.2s0.4,0.3,0.5,0.5c0.1,0.2,0.2,0.6,0.2,1.1v3H74v-2.6c0-0.4,0-0.7-0.1-0.9c-0.1-0.2-0.2-0.3-0.3-0.4
			c-0.2-0.1-0.3-0.1-0.5-0.1c-0.2,0-0.4,0.1-0.6,0.2s-0.4,0.3-0.5,0.6s-0.2,0.6-0.2,1V34.9z"/>
		<path d="M78.7,34.9v-6.5h0.8v5.8h3.4v0.7H78.7z"/>
		<path d="M86.4,34.9c-0.1-0.3-0.1-0.5-0.1-0.6c-0.3,0.3-0.6,0.6-0.8,0.6c-0.2,0.1-0.5,0.1-0.7,0.1c-0.4,0-0.7-0.1-0.9-0.3
			c-0.3-0.2-0.4-0.5-0.4-0.9c0-0.5,0.2-0.8,0.5-1c0.4-0.2,1-0.5,1.9-0.6l0.4-0.1v-0.5c0-0.3-0.1-0.5-0.3-0.6
			c-0.2-0.1-0.4-0.2-0.7-0.2c-0.3,0-0.5,0.1-0.7,0.2c-0.2,0.1-0.3,0.3-0.3,0.5v0.1h-0.8v-0.1c0-0.2,0.1-0.4,0.3-0.6
			c0.2-0.2,0.4-0.4,0.7-0.5c0.3-0.1,0.6-0.2,0.9-0.2c0.3,0,0.6,0.1,0.9,0.2c0.3,0.1,0.5,0.2,0.6,0.4s0.2,0.5,0.2,1v1.8
			c0,0.2,0,0.4,0,0.6s0.1,0.5,0.1,0.8H86.4z M86.3,32.6l-0.2,0.1c-0.8,0.2-1.2,0.4-1.4,0.5c-0.2,0.2-0.3,0.4-0.3,0.6
			c0,0.1,0,0.2,0.1,0.3c0.1,0.1,0.2,0.2,0.3,0.2c0.1,0.1,0.2,0.1,0.4,0.1c0.2,0,0.4-0.1,0.6-0.2c0.2-0.1,0.4-0.3,0.5-0.5
			c0.1-0.2,0.2-0.5,0.2-0.7V32.6z"/>
		<path d="M89,34.9h-0.8c0-0.2,0-0.3,0-0.6s0-0.4,0-0.5c0-0.1,0-0.2,0-0.3v-5.4h0.8v2.9c0.2-0.3,0.3-0.5,0.5-0.6
			c0.1-0.1,0.3-0.2,0.5-0.3c0.2-0.1,0.4-0.1,0.5-0.1c0.3,0,0.7,0.1,1,0.3c0.3,0.2,0.5,0.5,0.7,0.9s0.2,0.8,0.2,1.3
			c0,0.7-0.2,1.3-0.5,1.8s-0.8,0.7-1.4,0.7c-0.2,0-0.4,0-0.6-0.1c-0.2-0.1-0.3-0.1-0.5-0.3c-0.1-0.1-0.3-0.3-0.4-0.6l0,0.3
			C89.1,34.7,89.1,34.8,89,34.9z M89.1,32.6c0,0.5,0.1,1,0.3,1.3c0.2,0.3,0.5,0.5,0.9,0.5c0.4,0,0.7-0.2,0.9-0.5s0.4-0.8,0.4-1.4
			c0-0.7-0.1-1.2-0.4-1.5c-0.3-0.3-0.5-0.4-0.9-0.4c-0.2,0-0.5,0.1-0.7,0.2c-0.2,0.1-0.4,0.4-0.5,0.7C89.2,31.9,89.1,32.3,89.1,32.6
			z"/>
		<path d="M95.4,35.1c-0.6,0-1.1-0.2-1.5-0.6c-0.4-0.4-0.6-1-0.6-1.8c0-0.8,0.2-1.4,0.6-1.8c0.4-0.4,0.9-0.6,1.5-0.6
			c0.6,0,1.1,0.2,1.5,0.6c0.4,0.4,0.6,1,0.6,1.8c0,0.8-0.2,1.4-0.6,1.8C96.6,34.9,96,35.1,95.4,35.1z M95.4,34.4
			c0.4,0,0.7-0.2,1-0.5c0.3-0.3,0.4-0.8,0.4-1.3c0-0.5-0.1-1-0.4-1.3c-0.3-0.3-0.6-0.5-1-0.5c-0.4,0-0.7,0.2-1,0.5
			c-0.3,0.3-0.4,0.8-0.4,1.3c0,0.5,0.1,1,0.4,1.3C94.7,34.3,95,34.4,95.4,34.4z"/>
		<path d="M99.4,34.9h-0.8v-4.7h0.8v0.8c0.1-0.2,0.3-0.4,0.4-0.6c0.2-0.1,0.3-0.2,0.5-0.3s0.4-0.1,0.5-0.1c0.2,0,0.3,0,0.4,0.1V31
			c-0.2-0.1-0.4-0.1-0.6-0.1c-0.3,0-0.6,0.1-0.9,0.4c-0.3,0.3-0.4,0.7-0.4,1.4V34.9z"/>
		<path d="M104.6,34.9c-0.1-0.3-0.1-0.5-0.1-0.6c-0.3,0.3-0.6,0.6-0.8,0.6c-0.2,0.1-0.5,0.1-0.7,0.1c-0.4,0-0.7-0.1-0.9-0.3
			c-0.3-0.2-0.4-0.5-0.4-0.9c0-0.5,0.2-0.8,0.5-1c0.4-0.2,1-0.5,1.9-0.6l0.4-0.1v-0.5c0-0.3-0.1-0.5-0.3-0.6
			c-0.2-0.1-0.4-0.2-0.7-0.2c-0.3,0-0.5,0.1-0.7,0.2c-0.2,0.1-0.3,0.3-0.3,0.5v0.1h-0.8v-0.1c0-0.2,0.1-0.4,0.3-0.6
			c0.2-0.2,0.4-0.4,0.7-0.5c0.3-0.1,0.6-0.2,0.9-0.2c0.3,0,0.6,0.1,0.9,0.2c0.3,0.1,0.5,0.2,0.6,0.4s0.2,0.5,0.2,1v1.8
			c0,0.2,0,0.4,0,0.6s0.1,0.5,0.1,0.8H104.6z M104.5,32.6l-0.2,0.1c-0.8,0.2-1.2,0.4-1.4,0.5c-0.2,0.2-0.3,0.4-0.3,0.6
			c0,0.1,0,0.2,0.1,0.3c0.1,0.1,0.2,0.2,0.3,0.2c0.1,0.1,0.2,0.1,0.4,0.1c0.2,0,0.4-0.1,0.6-0.2c0.2-0.1,0.4-0.3,0.5-0.5
			c0.1-0.2,0.2-0.5,0.2-0.7V32.6z"/>
		<path d="M109.4,34.3v0.7c-0.4,0.1-0.7,0.1-0.9,0.1c-0.3,0-0.5-0.1-0.8-0.2s-0.4-0.3-0.5-0.5c-0.1-0.2-0.2-0.6-0.2-1.1v-2.4h-0.8
			v-0.6h0.8v-1.1h0.8v1.1h1.3v0.6h-1.3v2.2c0,0.4,0,0.7,0.1,0.9s0.2,0.3,0.3,0.4c0.1,0.1,0.3,0.1,0.5,0.1
			C108.8,34.4,109.1,34.4,109.4,34.3z"/>
		<path d="M112.3,35.1c-0.6,0-1.1-0.2-1.5-0.6c-0.4-0.4-0.6-1-0.6-1.8c0-0.8,0.2-1.4,0.6-1.8c0.4-0.4,0.9-0.6,1.5-0.6
			c0.6,0,1.1,0.2,1.5,0.6c0.4,0.4,0.6,1,0.6,1.8c0,0.8-0.2,1.4-0.6,1.8C113.4,34.9,112.9,35.1,112.3,35.1z M112.3,34.4
			c0.4,0,0.7-0.2,1-0.5c0.3-0.3,0.4-0.8,0.4-1.3c0-0.5-0.1-1-0.4-1.3c-0.3-0.3-0.6-0.5-1-0.5c-0.4,0-0.7,0.2-1,0.5
			c-0.3,0.3-0.4,0.8-0.4,1.3c0,0.5,0.1,1,0.4,1.3C111.5,34.3,111.8,34.4,112.3,34.4z"/>
		<path d="M116.2,34.9h-0.8v-4.7h0.8v0.8c0.1-0.2,0.3-0.4,0.4-0.6c0.2-0.1,0.3-0.2,0.5-0.3s0.4-0.1,0.5-0.1c0.2,0,0.3,0,0.4,0.1V31
			c-0.2-0.1-0.4-0.1-0.6-0.1c-0.3,0-0.6,0.1-0.9,0.4c-0.3,0.3-0.4,0.7-0.4,1.4V34.9z"/>
		<path d="M120.2,34.7l-2-4.5h0.9l1.5,3.5l1.4-3.5h0.8l-1.9,4.7c-0.3,0.6-0.5,1-0.7,1.3c-0.2,0.2-0.4,0.4-0.6,0.4
			c-0.2,0.1-0.5,0.1-0.8,0.1h-0.6v-0.6h0.4c0.2,0,0.4,0,0.6-0.1c0.2-0.1,0.3-0.1,0.4-0.3c0.1-0.1,0.2-0.4,0.4-0.8L120.2,34.7z"/>
	</g>
</g>
<g id="Layer_2_1_">
	<g class="st0">
		<path class="st1" d="M1.4,6.1h4.2l2.9,10.4l2.9-10.4h4.1l-4.8,14.5H6.4L1.4,6.1z"/>
	</g>
	<g class="st0">
		<path class="st2" d="M17.1,6.1h4v14.5h-4V6.1z"/>
	</g>
	<g class="st0">
		<path d="M24,6.1h4V17h6.3v3.6H24V6.1z"/>
	</g>
	<g class="st0">
		<path d="M39.8,13.5l-3.5-0.4c0.1-0.7,0.3-1.2,0.6-1.6c0.2-0.4,0.6-0.7,1.1-1c0.3-0.2,0.8-0.4,1.4-0.5c0.6-0.1,1.2-0.2,1.9-0.2
			c1.1,0,2,0.1,2.6,0.2c0.7,0.1,1.2,0.4,1.6,0.8c0.3,0.3,0.6,0.7,0.7,1.3c0.2,0.5,0.3,1.1,0.3,1.6v4.6c0,0.5,0,0.9,0.1,1.2
			c0.1,0.3,0.2,0.6,0.4,1.1h-3.4c-0.1-0.3-0.2-0.5-0.3-0.6s-0.1-0.4-0.1-0.7c-0.5,0.5-0.9,0.9-1.4,1.1c-0.6,0.3-1.4,0.4-2.2,0.4
			c-1.1,0-2-0.3-2.6-0.9c-0.6-0.6-0.9-1.3-0.9-2.1c0-0.8,0.2-1.5,0.6-2c0.4-0.5,1.2-0.9,2.3-1.1c1.4-0.3,2.2-0.5,2.6-0.6
			c0.4-0.1,0.8-0.3,1.3-0.5c0-0.5-0.1-0.8-0.3-1c-0.2-0.2-0.5-0.3-1-0.3c-0.6,0-1,0.1-1.3,0.3C40.1,12.7,39.9,13,39.8,13.5z
			 M42.9,15.6c-0.5,0.2-1,0.4-1.6,0.5c-0.7,0.2-1.2,0.4-1.4,0.6c-0.2,0.2-0.3,0.5-0.3,0.7c0,0.3,0.1,0.6,0.3,0.8
			c0.2,0.2,0.5,0.3,0.9,0.3c0.4,0,0.8-0.1,1.1-0.3s0.6-0.5,0.7-0.8c0.1-0.3,0.2-0.7,0.2-1.2V15.6z"/>
		<path d="M48.9,6.1h3.7v5c0.4-0.4,0.8-0.7,1.2-0.9c0.5-0.2,1-0.3,1.5-0.3c1.2,0,2.1,0.5,2.9,1.4c0.8,0.9,1.1,2.2,1.1,4
			c0,1.1-0.2,2.2-0.5,3c-0.3,0.9-0.8,1.5-1.4,2c-0.6,0.4-1.3,0.6-2,0.6c-0.6,0-1.2-0.2-1.7-0.5c-0.4-0.2-0.8-0.7-1.3-1.3v1.6h-3.4
			V6.1z M52.5,15.3c0,0.9,0.2,1.6,0.5,2c0.3,0.4,0.7,0.6,1.2,0.6c0.4,0,0.8-0.2,1.1-0.6s0.4-1.1,0.4-2c0-0.8-0.1-1.4-0.4-1.8
			c-0.3-0.4-0.6-0.6-1-0.6c-0.5,0-0.9,0.2-1.2,0.6S52.5,14.5,52.5,15.3z"/>
	</g>
	<path d="M35.5,25.6H0.2V0.2h35.4V25.6z M0.4,25.4h34.9V0.4H0.4V25.4z"/>
</g>
</svg>
